<mxfile host="app.diagrams.net" agent="Mozilla/5.0 (Macintosh; Intel Mac OS X 10_15_7) AppleWebKit/537.36 (KHTML, like Gecko) Chrome/132.0.0.0 Safari/537.36" version="26.0.16">
  <diagram id="Ht1M8jgEwFfnCIfOTk4-" name="Page-1">
    <mxGraphModel dx="2506" dy="1631" grid="0" gridSize="10" guides="1" tooltips="1" connect="1" arrows="1" fold="1" page="0" pageScale="1" pageWidth="1169" pageHeight="827" math="0" shadow="0">
      <root>
        <mxCell id="0" />
        <mxCell id="1" parent="0" />
        <mxCell id="S4DxvhHedHkcSoAMQ83i-20" value="AWS Cloud" style="points=[[0,0],[0.25,0],[0.5,0],[0.75,0],[1,0],[1,0.25],[1,0.5],[1,0.75],[1,1],[0.75,1],[0.5,1],[0.25,1],[0,1],[0,0.75],[0,0.5],[0,0.25]];outlineConnect=0;gradientColor=none;html=1;whiteSpace=wrap;fontSize=12;fontStyle=0;container=1;pointerEvents=0;collapsible=0;recursiveResize=0;shape=mxgraph.aws4.group;grIcon=mxgraph.aws4.group_aws_cloud_alt;strokeColor=#232F3E;fillColor=none;verticalAlign=top;align=left;spacingLeft=30;fontColor=#232F3E;dashed=0;" vertex="1" parent="1">
          <mxGeometry x="-80" y="-160" width="1600" height="1200" as="geometry" />
        </mxCell>
        <mxCell id="S4DxvhHedHkcSoAMQ83i-23" value="AWS Account" style="points=[[0,0],[0.25,0],[0.5,0],[0.75,0],[1,0],[1,0.25],[1,0.5],[1,0.75],[1,1],[0.75,1],[0.5,1],[0.25,1],[0,1],[0,0.75],[0,0.5],[0,0.25]];outlineConnect=0;gradientColor=none;html=1;whiteSpace=wrap;fontSize=12;fontStyle=0;container=1;pointerEvents=0;collapsible=0;recursiveResize=0;shape=mxgraph.aws4.group;grIcon=mxgraph.aws4.group_account;strokeColor=#CD2264;fillColor=none;verticalAlign=top;align=left;spacingLeft=30;fontColor=#CD2264;dashed=0;" vertex="1" parent="1">
          <mxGeometry x="-40" y="-120" width="1520" height="1120" as="geometry" />
        </mxCell>
        <mxCell id="S4DxvhHedHkcSoAMQ83i-10" value="Jenkins Volume Migration Bucket" style="outlineConnect=0;fontColor=#232F3E;gradientColor=#60A337;gradientDirection=north;fillColor=#277116;strokeColor=#ffffff;dashed=0;verticalLabelPosition=bottom;verticalAlign=top;align=center;html=1;fontSize=12;fontStyle=0;aspect=fixed;shape=mxgraph.aws4.resourceIcon;resIcon=mxgraph.aws4.s3;labelBackgroundColor=#ffffff;" vertex="1" parent="S4DxvhHedHkcSoAMQ83i-23">
          <mxGeometry x="568.0000000000002" y="1010" width="78" height="78" as="geometry" />
        </mxCell>
        <mxCell id="S4DxvhHedHkcSoAMQ83i-115" style="edgeStyle=orthogonalEdgeStyle;rounded=0;orthogonalLoop=1;jettySize=auto;html=1;" edge="1" parent="S4DxvhHedHkcSoAMQ83i-23" source="S4DxvhHedHkcSoAMQ83i-112" target="S4DxvhHedHkcSoAMQ83i-32">
          <mxGeometry relative="1" as="geometry" />
        </mxCell>
        <mxCell id="S4DxvhHedHkcSoAMQ83i-112" value="" style="sketch=0;points=[[0,0,0],[0.25,0,0],[0.5,0,0],[0.75,0,0],[1,0,0],[0,1,0],[0.25,1,0],[0.5,1,0],[0.75,1,0],[1,1,0],[0,0.25,0],[0,0.5,0],[0,0.75,0],[1,0.25,0],[1,0.5,0],[1,0.75,0]];outlineConnect=0;fontColor=#232F3E;fillColor=#E7157B;strokeColor=#ffffff;dashed=0;verticalLabelPosition=bottom;verticalAlign=top;align=center;html=1;fontSize=12;fontStyle=0;aspect=fixed;shape=mxgraph.aws4.resourceIcon;resIcon=mxgraph.aws4.eventbridge;" vertex="1" parent="S4DxvhHedHkcSoAMQ83i-23">
          <mxGeometry x="716" y="1018" width="78" height="78" as="geometry" />
        </mxCell>
        <mxCell id="S4DxvhHedHkcSoAMQ83i-32" value="Lambda EBS deletion" style="outlineConnect=0;fontColor=#232F3E;gradientColor=none;fillColor=#D05C17;strokeColor=none;dashed=0;verticalLabelPosition=bottom;verticalAlign=top;align=center;html=1;fontSize=12;fontStyle=0;aspect=fixed;pointerEvents=1;shape=mxgraph.aws4.lambda_function;labelBackgroundColor=#ffffff;" vertex="1" parent="S4DxvhHedHkcSoAMQ83i-23">
          <mxGeometry x="869" y="1018" width="78" height="78" as="geometry" />
        </mxCell>
        <mxCell id="S4DxvhHedHkcSoAMQ83i-25" value="Region" style="points=[[0,0],[0.25,0],[0.5,0],[0.75,0],[1,0],[1,0.25],[1,0.5],[1,0.75],[1,1],[0.75,1],[0.5,1],[0.25,1],[0,1],[0,0.75],[0,0.5],[0,0.25]];outlineConnect=0;gradientColor=none;html=1;whiteSpace=wrap;fontSize=12;fontStyle=0;container=1;pointerEvents=0;collapsible=0;recursiveResize=0;shape=mxgraph.aws4.group;grIcon=mxgraph.aws4.group_region;strokeColor=#00A4A6;fillColor=none;verticalAlign=top;align=left;spacingLeft=30;fontColor=#147EBA;dashed=1;" vertex="1" parent="1">
          <mxGeometry x="40" y="-80" width="1400" height="960" as="geometry" />
        </mxCell>
        <mxCell id="S4DxvhHedHkcSoAMQ83i-26" value="VPC" style="points=[[0,0],[0.25,0],[0.5,0],[0.75,0],[1,0],[1,0.25],[1,0.5],[1,0.75],[1,1],[0.75,1],[0.5,1],[0.25,1],[0,1],[0,0.75],[0,0.5],[0,0.25]];outlineConnect=0;gradientColor=none;html=1;whiteSpace=wrap;fontSize=12;fontStyle=0;container=1;pointerEvents=0;collapsible=0;recursiveResize=0;shape=mxgraph.aws4.group;grIcon=mxgraph.aws4.group_vpc2;strokeColor=#8C4FFF;fillColor=none;verticalAlign=top;align=left;spacingLeft=30;fontColor=#AAB7B8;dashed=0;" vertex="1" parent="S4DxvhHedHkcSoAMQ83i-25">
          <mxGeometry x="80" y="200" width="1000" height="680" as="geometry" />
        </mxCell>
        <mxCell id="S4DxvhHedHkcSoAMQ83i-36" value="Availability Zone A" style="fillColor=none;strokeColor=#147EBA;dashed=1;verticalAlign=top;fontStyle=0;fontColor=#147EBA;whiteSpace=wrap;html=1;" vertex="1" parent="S4DxvhHedHkcSoAMQ83i-25">
          <mxGeometry x="120" y="160" width="810" height="760" as="geometry" />
        </mxCell>
        <mxCell id="S4DxvhHedHkcSoAMQ83i-37" value="internet Gateway" style="sketch=0;outlineConnect=0;fontColor=#232F3E;gradientColor=none;fillColor=#8C4FFF;strokeColor=none;dashed=0;verticalLabelPosition=bottom;verticalAlign=top;align=center;html=1;fontSize=12;fontStyle=0;aspect=fixed;pointerEvents=1;shape=mxgraph.aws4.internet_gateway;" vertex="1" parent="S4DxvhHedHkcSoAMQ83i-25">
          <mxGeometry x="287" y="441" width="78" height="78" as="geometry" />
        </mxCell>
        <mxCell id="S4DxvhHedHkcSoAMQ83i-40" value="Public subnet" style="points=[[0,0],[0.25,0],[0.5,0],[0.75,0],[1,0],[1,0.25],[1,0.5],[1,0.75],[1,1],[0.75,1],[0.5,1],[0.25,1],[0,1],[0,0.75],[0,0.5],[0,0.25]];outlineConnect=0;gradientColor=none;html=1;whiteSpace=wrap;fontSize=12;fontStyle=0;container=1;pointerEvents=0;collapsible=0;recursiveResize=0;shape=mxgraph.aws4.group;grIcon=mxgraph.aws4.group_security_group;grStroke=0;strokeColor=#7AA116;fillColor=#F2F6E8;verticalAlign=top;align=left;spacingLeft=30;fontColor=#248814;dashed=0;" vertex="1" parent="S4DxvhHedHkcSoAMQ83i-25">
          <mxGeometry x="157" y="220" width="720" height="620" as="geometry" />
        </mxCell>
        <mxCell id="S4DxvhHedHkcSoAMQ83i-51" value="ECS Security Group" style="fillColor=none;strokeColor=#DD3522;verticalAlign=top;fontStyle=0;fontColor=#DD3522;whiteSpace=wrap;html=1;" vertex="1" parent="S4DxvhHedHkcSoAMQ83i-40">
          <mxGeometry x="10" y="171" width="200" height="235" as="geometry" />
        </mxCell>
        <mxCell id="S4DxvhHedHkcSoAMQ83i-47" value="/dev/xdvf attached EBS" style="sketch=0;outlineConnect=0;fontColor=#232F3E;gradientColor=none;fillColor=#7AA116;strokeColor=none;dashed=0;verticalLabelPosition=bottom;verticalAlign=top;align=center;html=1;fontSize=12;fontStyle=0;aspect=fixed;pointerEvents=1;shape=mxgraph.aws4.elastic_block_store_volume_gp3;" vertex="1" parent="S4DxvhHedHkcSoAMQ83i-40">
          <mxGeometry x="627" y="369" width="64" height="78" as="geometry" />
        </mxCell>
        <mxCell id="S4DxvhHedHkcSoAMQ83i-111" value="Jenkins Fargate Slaves" style="sketch=0;points=[[0,0,0],[0.25,0,0],[0.5,0,0],[0.75,0,0],[1,0,0],[0,1,0],[0.25,1,0],[0.5,1,0],[0.75,1,0],[1,1,0],[0,0.25,0],[0,0.5,0],[0,0.75,0],[1,0.25,0],[1,0.5,0],[1,0.75,0]];outlineConnect=0;fontColor=#232F3E;fillColor=#ED7100;strokeColor=#ffffff;dashed=0;verticalLabelPosition=bottom;verticalAlign=top;align=center;html=1;fontSize=12;fontStyle=0;aspect=fixed;shape=mxgraph.aws4.resourceIcon;resIcon=mxgraph.aws4.fargate;" vertex="1" parent="S4DxvhHedHkcSoAMQ83i-40">
          <mxGeometry x="71" y="249.5" width="78" height="78" as="geometry" />
        </mxCell>
        <mxCell id="S4DxvhHedHkcSoAMQ83i-62" style="edgeStyle=orthogonalEdgeStyle;rounded=0;orthogonalLoop=1;jettySize=auto;html=1;" edge="1" parent="S4DxvhHedHkcSoAMQ83i-25" source="S4DxvhHedHkcSoAMQ83i-55" target="S4DxvhHedHkcSoAMQ83i-54">
          <mxGeometry relative="1" as="geometry" />
        </mxCell>
        <mxCell id="S4DxvhHedHkcSoAMQ83i-55" value="Lambda EBS snapshot" style="outlineConnect=0;fontColor=#232F3E;gradientColor=none;fillColor=#D05C17;strokeColor=none;dashed=0;verticalLabelPosition=bottom;verticalAlign=top;align=center;html=1;fontSize=12;fontStyle=0;aspect=fixed;pointerEvents=1;shape=mxgraph.aws4.lambda_function;labelBackgroundColor=#ffffff;" vertex="1" parent="S4DxvhHedHkcSoAMQ83i-25">
          <mxGeometry x="777" y="53" width="78" height="78" as="geometry" />
        </mxCell>
        <mxCell id="S4DxvhHedHkcSoAMQ83i-61" style="edgeStyle=orthogonalEdgeStyle;rounded=0;orthogonalLoop=1;jettySize=auto;html=1;" edge="1" parent="S4DxvhHedHkcSoAMQ83i-25" source="S4DxvhHedHkcSoAMQ83i-60" target="S4DxvhHedHkcSoAMQ83i-55">
          <mxGeometry relative="1" as="geometry">
            <Array as="points">
              <mxPoint x="687" y="320" />
              <mxPoint x="687" y="320" />
            </Array>
          </mxGeometry>
        </mxCell>
        <mxCell id="S4DxvhHedHkcSoAMQ83i-77" style="edgeStyle=orthogonalEdgeStyle;rounded=0;orthogonalLoop=1;jettySize=auto;html=1;entryX=1;entryY=0.75;entryDx=0;entryDy=0;exitX=0;exitY=0.75;exitDx=0;exitDy=0;" edge="1" parent="S4DxvhHedHkcSoAMQ83i-25" source="S4DxvhHedHkcSoAMQ83i-60" target="S4DxvhHedHkcSoAMQ83i-51">
          <mxGeometry relative="1" as="geometry" />
        </mxCell>
        <mxCell id="S4DxvhHedHkcSoAMQ83i-78" value="Port 50000/Private IPv4" style="edgeLabel;html=1;align=center;verticalAlign=middle;resizable=0;points=[];" vertex="1" connectable="0" parent="S4DxvhHedHkcSoAMQ83i-77">
          <mxGeometry x="0.013" y="-1" relative="1" as="geometry">
            <mxPoint as="offset" />
          </mxGeometry>
        </mxCell>
        <mxCell id="S4DxvhHedHkcSoAMQ83i-83" style="edgeStyle=orthogonalEdgeStyle;rounded=0;orthogonalLoop=1;jettySize=auto;html=1;exitX=0;exitY=1;exitDx=0;exitDy=0;" edge="1" parent="S4DxvhHedHkcSoAMQ83i-25" source="S4DxvhHedHkcSoAMQ83i-60" target="S4DxvhHedHkcSoAMQ83i-81">
          <mxGeometry relative="1" as="geometry">
            <Array as="points">
              <mxPoint x="417" y="620" />
              <mxPoint x="417" y="719" />
            </Array>
          </mxGeometry>
        </mxCell>
        <mxCell id="S4DxvhHedHkcSoAMQ83i-86" style="edgeStyle=orthogonalEdgeStyle;rounded=0;orthogonalLoop=1;jettySize=auto;html=1;" edge="1" parent="S4DxvhHedHkcSoAMQ83i-25" source="S4DxvhHedHkcSoAMQ83i-60" target="S4DxvhHedHkcSoAMQ83i-85">
          <mxGeometry relative="1" as="geometry" />
        </mxCell>
        <mxCell id="S4DxvhHedHkcSoAMQ83i-60" value="EC2 Security Group" style="fillColor=none;strokeColor=#DD3522;verticalAlign=top;fontStyle=0;fontColor=#DD3522;whiteSpace=wrap;html=1;" vertex="1" parent="S4DxvhHedHkcSoAMQ83i-25">
          <mxGeometry x="537" y="390" width="183" height="231" as="geometry" />
        </mxCell>
        <mxCell id="S4DxvhHedHkcSoAMQ83i-71" style="edgeStyle=orthogonalEdgeStyle;rounded=0;orthogonalLoop=1;jettySize=auto;html=1;" edge="1" parent="S4DxvhHedHkcSoAMQ83i-25" source="S4DxvhHedHkcSoAMQ83i-54" target="S4DxvhHedHkcSoAMQ83i-47">
          <mxGeometry relative="1" as="geometry" />
        </mxCell>
        <mxCell id="S4DxvhHedHkcSoAMQ83i-54" value="Snapshot /dev/xdvf" style="sketch=0;outlineConnect=0;fontColor=#232F3E;gradientColor=none;fillColor=#7AA116;strokeColor=none;dashed=0;verticalLabelPosition=bottom;verticalAlign=top;align=center;html=1;fontSize=12;fontStyle=0;aspect=fixed;pointerEvents=1;shape=mxgraph.aws4.snapshot;" vertex="1" parent="S4DxvhHedHkcSoAMQ83i-25">
          <mxGeometry x="788" y="385" width="56" height="78" as="geometry" />
        </mxCell>
        <mxCell id="S4DxvhHedHkcSoAMQ83i-72" style="edgeStyle=orthogonalEdgeStyle;rounded=0;orthogonalLoop=1;jettySize=auto;html=1;" edge="1" parent="S4DxvhHedHkcSoAMQ83i-25" source="S4DxvhHedHkcSoAMQ83i-47" target="S4DxvhHedHkcSoAMQ83i-54">
          <mxGeometry relative="1" as="geometry" />
        </mxCell>
        <mxCell id="S4DxvhHedHkcSoAMQ83i-74" style="edgeStyle=orthogonalEdgeStyle;rounded=0;orthogonalLoop=1;jettySize=auto;html=1;" edge="1" parent="S4DxvhHedHkcSoAMQ83i-25" source="S4DxvhHedHkcSoAMQ83i-16" target="S4DxvhHedHkcSoAMQ83i-60">
          <mxGeometry relative="1" as="geometry">
            <Array as="points">
              <mxPoint x="587" y="79" />
            </Array>
          </mxGeometry>
        </mxCell>
        <mxCell id="S4DxvhHedHkcSoAMQ83i-16" value="ECR Jenkins Master" style="sketch=0;points=[[0,0,0],[0.25,0,0],[0.5,0,0],[0.75,0,0],[1,0,0],[0,1,0],[0.25,1,0],[0.5,1,0],[0.75,1,0],[1,1,0],[0,0.25,0],[0,0.5,0],[0,0.75,0],[1,0.25,0],[1,0.5,0],[1,0.75,0]];outlineConnect=0;fontColor=#232F3E;fillColor=#ED7100;strokeColor=#ffffff;dashed=0;verticalLabelPosition=bottom;verticalAlign=top;align=center;html=1;fontSize=12;fontStyle=0;aspect=fixed;shape=mxgraph.aws4.resourceIcon;resIcon=mxgraph.aws4.ecr;" vertex="1" parent="S4DxvhHedHkcSoAMQ83i-25">
          <mxGeometry x="419" y="40" width="78" height="78" as="geometry" />
        </mxCell>
        <mxCell id="S4DxvhHedHkcSoAMQ83i-79" style="edgeStyle=orthogonalEdgeStyle;rounded=0;orthogonalLoop=1;jettySize=auto;html=1;exitX=1;exitY=0.25;exitDx=0;exitDy=0;entryX=0;entryY=0.25;entryDx=0;entryDy=0;" edge="1" parent="S4DxvhHedHkcSoAMQ83i-25" source="S4DxvhHedHkcSoAMQ83i-51" target="S4DxvhHedHkcSoAMQ83i-60">
          <mxGeometry relative="1" as="geometry" />
        </mxCell>
        <mxCell id="S4DxvhHedHkcSoAMQ83i-80" value="Port 8080/Private IPv4" style="edgeLabel;html=1;align=center;verticalAlign=middle;resizable=0;points=[];" vertex="1" connectable="0" parent="S4DxvhHedHkcSoAMQ83i-79">
          <mxGeometry x="-0.1376" y="1" relative="1" as="geometry">
            <mxPoint as="offset" />
          </mxGeometry>
        </mxCell>
        <mxCell id="S4DxvhHedHkcSoAMQ83i-81" value="Amazon&lt;br&gt;CloudWatch&lt;br&gt;" style="outlineConnect=0;fontColor=#232F3E;gradientColor=#F34482;gradientDirection=north;fillColor=#BC1356;strokeColor=#ffffff;dashed=0;verticalLabelPosition=bottom;verticalAlign=top;align=center;html=1;fontSize=12;fontStyle=0;aspect=fixed;shape=mxgraph.aws4.resourceIcon;resIcon=mxgraph.aws4.cloudwatch;labelBackgroundColor=#ffffff;" vertex="1" parent="S4DxvhHedHkcSoAMQ83i-25">
          <mxGeometry x="229.00000000000023" y="680" width="78" height="78" as="geometry" />
        </mxCell>
        <mxCell id="S4DxvhHedHkcSoAMQ83i-82" style="edgeStyle=orthogonalEdgeStyle;rounded=0;orthogonalLoop=1;jettySize=auto;html=1;" edge="1" parent="S4DxvhHedHkcSoAMQ83i-25" source="S4DxvhHedHkcSoAMQ83i-51" target="S4DxvhHedHkcSoAMQ83i-81">
          <mxGeometry relative="1" as="geometry" />
        </mxCell>
        <mxCell id="S4DxvhHedHkcSoAMQ83i-75" value="ECR Jenkins Slave&lt;div&gt;&lt;br&gt;&lt;/div&gt;" style="sketch=0;points=[[0,0,0],[0.25,0,0],[0.5,0,0],[0.75,0,0],[1,0,0],[0,1,0],[0.25,1,0],[0.5,1,0],[0.75,1,0],[1,1,0],[0,0.25,0],[0,0.5,0],[0,0.75,0],[1,0.25,0],[1,0.5,0],[1,0.75,0]];outlineConnect=0;fontColor=#232F3E;fillColor=#ED7100;strokeColor=#ffffff;dashed=0;verticalLabelPosition=bottom;verticalAlign=top;align=center;html=1;fontSize=12;fontStyle=0;aspect=fixed;shape=mxgraph.aws4.resourceIcon;resIcon=mxgraph.aws4.ecr;" vertex="1" parent="S4DxvhHedHkcSoAMQ83i-25">
          <mxGeometry x="229" y="40" width="78" height="78" as="geometry" />
        </mxCell>
        <mxCell id="S4DxvhHedHkcSoAMQ83i-76" style="edgeStyle=orthogonalEdgeStyle;rounded=0;orthogonalLoop=1;jettySize=auto;html=1;entryX=0.5;entryY=0;entryDx=0;entryDy=0;" edge="1" parent="S4DxvhHedHkcSoAMQ83i-25" source="S4DxvhHedHkcSoAMQ83i-75" target="S4DxvhHedHkcSoAMQ83i-51">
          <mxGeometry relative="1" as="geometry" />
        </mxCell>
        <mxCell id="S4DxvhHedHkcSoAMQ83i-85" value="Internet Gateway" style="sketch=0;outlineConnect=0;fontColor=#232F3E;gradientColor=none;fillColor=#8C4FFF;strokeColor=none;dashed=0;verticalLabelPosition=bottom;verticalAlign=top;align=center;html=1;fontSize=12;fontStyle=0;aspect=fixed;pointerEvents=1;shape=mxgraph.aws4.internet_gateway;" vertex="1" parent="S4DxvhHedHkcSoAMQ83i-25">
          <mxGeometry x="1039" y="466" width="78" height="78" as="geometry" />
        </mxCell>
        <object label="Jenkins Master" JenkinsMaster="dsfadsfa" id="S4DxvhHedHkcSoAMQ83i-110">
          <mxCell style="sketch=0;points=[[0,0,0],[0.25,0,0],[0.5,0,0],[0.75,0,0],[1,0,0],[0,1,0],[0.25,1,0],[0.5,1,0],[0.75,1,0],[1,1,0],[0,0.25,0],[0,0.5,0],[0,0.75,0],[1,0.25,0],[1,0.5,0],[1,0.75,0]];outlineConnect=0;fontColor=#232F3E;fillColor=#ED7100;strokeColor=#ffffff;dashed=0;verticalLabelPosition=bottom;verticalAlign=top;align=center;html=1;fontSize=12;fontStyle=0;aspect=fixed;shape=mxgraph.aws4.resourceIcon;resIcon=mxgraph.aws4.ec2;" vertex="1" parent="S4DxvhHedHkcSoAMQ83i-25">
            <mxGeometry x="589.5" y="466.5" width="78" height="78" as="geometry" />
          </mxCell>
        </object>
        <mxCell id="S4DxvhHedHkcSoAMQ83i-113" value="EventBridge" style="sketch=0;points=[[0,0,0],[0.25,0,0],[0.5,0,0],[0.75,0,0],[1,0,0],[0,1,0],[0.25,1,0],[0.5,1,0],[0.75,1,0],[1,1,0],[0,0.25,0],[0,0.5,0],[0,0.75,0],[1,0.25,0],[1,0.5,0],[1,0.75,0]];outlineConnect=0;fontColor=#232F3E;fillColor=#E7157B;strokeColor=#ffffff;dashed=0;verticalLabelPosition=bottom;verticalAlign=top;align=center;html=1;fontSize=12;fontStyle=0;aspect=fixed;shape=mxgraph.aws4.resourceIcon;resIcon=mxgraph.aws4.eventbridge;" vertex="1" parent="S4DxvhHedHkcSoAMQ83i-25">
          <mxGeometry x="657" y="63" width="78" height="78" as="geometry" />
        </mxCell>
        <mxCell id="S4DxvhHedHkcSoAMQ83i-87" style="edgeStyle=orthogonalEdgeStyle;rounded=0;orthogonalLoop=1;jettySize=auto;html=1;entryX=0;entryY=0.5;entryDx=0;entryDy=0;entryPerimeter=0;" edge="1" parent="1" source="S4DxvhHedHkcSoAMQ83i-85" target="S4DxvhHedHkcSoAMQ83i-91">
          <mxGeometry relative="1" as="geometry">
            <mxPoint x="1470" y="464.58823529411757" as="targetPoint" />
          </mxGeometry>
        </mxCell>
        <mxCell id="S4DxvhHedHkcSoAMQ83i-88" value="Web Browser" style="sketch=0;pointerEvents=1;shadow=0;dashed=0;html=1;strokeColor=none;fillColor=#434445;aspect=fixed;labelPosition=center;verticalLabelPosition=bottom;verticalAlign=top;align=center;outlineConnect=0;shape=mxgraph.vvd.web_browser;" vertex="1" parent="1">
          <mxGeometry x="1563" y="539" width="98.59" height="70" as="geometry" />
        </mxCell>
        <mxCell id="S4DxvhHedHkcSoAMQ83i-97" style="edgeStyle=orthogonalEdgeStyle;rounded=0;orthogonalLoop=1;jettySize=auto;html=1;" edge="1" parent="1" source="S4DxvhHedHkcSoAMQ83i-103" target="S4DxvhHedHkcSoAMQ83i-10">
          <mxGeometry relative="1" as="geometry">
            <Array as="points">
              <mxPoint x="1810" y="1017" />
              <mxPoint x="567" y="1017" />
            </Array>
          </mxGeometry>
        </mxCell>
        <mxCell id="S4DxvhHedHkcSoAMQ83i-90" value="" style="shape=image;verticalLabelPosition=bottom;labelBackgroundColor=default;verticalAlign=top;aspect=fixed;imageAspect=0;image=data:image/png,iVBORw0KGgoAAAANSUhEUgAAAGQAAABkCAYAAABw4pVUAAAAAXNSR0IArs4c6QAAIABJREFUeF7tXQd0VEXbfu62JLupm94XEnpHRVBRUFBKAAMCUoSP/gkI6IcVQYpURUDpIChKESkCNpAmBBDpvYX0upvtvd7fmc0mWRJIwCyE/2TO4eSwO3fuzPvMO2+ddxnUthpFAaZGzaZ2MqgFpIZtglpAagGpYRSoYdOp5ZBaQGoYBWrYdGo5pBaQGkaBGjadWg6pBaRaKUA2lDcAIQAfoJxdZQRgAkD+2qv1zR4a7PHjEBYMGAR7eXmJw8TiJB6XP5jhcOozDAWFYUtRYcHCyoLNt9rse9QqxQaNwZALQArA5iF6/uthHydABACiosMiX/HyEcxiwISWXT2Hw4GfrwgikQ/sNjs0Wh1MJgsIKmWa1WKxzsjOz/0OQDbg/uW/pmY1DPA4AMIhQMRFRY3j8wXvASD/L2kN69fB8s8/QniouNyJxbIs5AoVNm37Dd9s3g2z2erEgIVBJlN01Bg15wCQD2tMq8mAkLmFR4aFdRb6CNcyDCN4ocMLGDlyJEYMHwE/kQ9+/PZzhIUQIMo2FixhCtYB1uEoZgIGDIeDQpkSIyfOQHomObkAnV43sLCoaDcAfU1BpKYC4iMUCptEhITuYRgmYviI4ejXrx9Onz6DqR9/jE/eG4O+r75cQkPWYYfdpANrtRR/5nZMlaP15ZtZGPzWHKoC6A36YQUy2Y81BZSaCEhAbET0BIEXf2bDhg2xaPEipKWlY82atbh65RIO7/kaAf6+lMgOmwV2vapKm7uMsKf91Vo9OvSbDHKs6fS6QYVFRQSUR3581TRA/GKio2d58fgTydHUt19fbN6yFQUF+Thy6CBO7NsAHo9HCWrTKsA6/p2ylJMvQ9KwqXQ8mVTRVmPU/P2oBX1NAoQJDAzsEBwQeHD0mNHo3bs3vl63HgaDEUf/PIyjv6ylYJAdbdMUVQvduEJ/7Pw9BdPmLCf6sik1K6MxgPQqsZyHOtUkQELqxsafiZNI4ubNn4sF8xcgPy8fJpMJC2dNwjNtmlMtyqqWuYHB8ATgePnAYTaCtblkiItaZHkVyxO+fwgKpAocO3keq7/djpy8QlistqXZeTmTAZg9RO9Kh60pgIgjwsL6i7yFy122tr+/P1q0aIGUlBQqN0KCA2HTKcHaS495nl8wMrLz8db781EkV2H+hyPwzBNkk1fWGOz/+wYmT/vizo6O24UZCTAho7IRPPV9TQBEGBsZPUUg4H9ENnOLli0wc9ZMut6rV69hwfz5mDC6P15L6uAmwAkYX3+/C4tWfA+GYRDgJ4LBZMbfu7+qEq12/H4c3V98iuL/469H8dnKrfQ5hULeQ6nV/lylQTzQ6ZEDIhAIGsdGRF0hlHn/g/fRpk0bKsiNRuJ+As6ePo3kbu0xum/H0uUzDC7clmLo2KmY8tZA9O3+/L8mjVKtRcf+78Jms/2WmZvTu9gH9q/Hvd8BHjUgnKiwiKk+3t7Tk3om4fXXX6dglG0njqXg/XED8MqzzUo/5nDRvvckjB7YDW/0fsmtPzEKmQdc1ZfrduLrH37XpWVlJhT7vO6Xnv+6/wNO/V+/1zWAqE5c3BkOOA1+/vVnrFy1hmpRZdsfe3/Hz+tmIiwk0O3zF/r+D3/+uLDaJkIG0umNeK7P2+ztzIz6AFKrdfAqDvaoARHXjZNkcRhGtPjLJdj3x/5y0/715z048+tycO7Y9ncaeq4HyefnL6eiVdPEKpIA2LD9Dwzp05m6XFp1/S+y8nKftFqtZ6o8QDV2fJSAcEX8wGYRUYFnOQyHGTp8GKRSotKWNsIthw/8geM7F1dpyVwff3AE3ujUaxR+2zC73DOj3l+ENfPfdvucJwrE8TNXIbAb0bJJAlp1fRP5MmlnvV5ffndUaRb/rtOjAoTr5+fXJiwoOAUMOByGg36vvw6tTue2GofDgaxbl7Dxyw8rXyXDAbEtSJu/ZD36vtIGsZFuHnoMfeczfDVjHPz9SOiEmDUM+AGhcNgdaN/1Pzi89XO07jYWGp12YqFMtvpRCPZHAQjX38f/qdAw8Qmi5vpwGJhYYOAbbyAvLw8EBJFIRFVZm90GdUE6Vs6ZWDkgALiiIHC4PNhtVrTqMBAHf/iMqsOuduj4eXy5/ifsXDO9dDyeADazCb1HTccH417H2zNWwGyxQmfQv14ok+162KA8dEAEAkGT2IioC2DA/SokBHv0euwzGMFwGLAOoiI5adWgYSMkJCbi0tm/sGfdrEoBIcfb5t2H8dxTTSAO8MOYDxdDbzDhp7UzSp4l8qV11zfxxdQx6PhMS5y9nIrhkz8v+X72e8Pw2cofodI4OVWuVnVUqVRHH2b492EDIqkbJ7nIAH7Tg4PQVSjE0zm51LvRrEk9zJ8+CSKhDz6YsQQnTl1Am7btcP7sGZzc9aWbKluRQLfabHi650Q4HKWh87nvj0DXjk+5gfn74VP4YN7XSNmxGL5Cb+zceww2mx29Xn4GAj4PHftPxkAAy9QUFDY7P6+xxWK5XumOqKYODxMQsSQmdjuXy+3QQyjEJ8Fi7NLpMUupRHLSi5g1ZRy27tiL+okStGzeEG07DYbdwdLja/uKD92OnrutnUYIlRqYzFaEBgfAS8CvsOvr4+YgK6+QgnKn9kZc8jMEPKRZbVhCQGHZvNtZmW0AOKNaHm4PCxBueEhIf1+h78YQHhe/R0XSZY2VynDKbMHF49sw9n+f4uz5a9AbTXihbXN0ev4pTF3wNe23fuFktGpSdTW2MpoR4Nq9OhEh4gD8vN79OGzT4y2sDvKDmMvBNIUa581WmG3WJTm5uUSzcLoPPNgeFiB1E+IkN4ncPRobDR+GgdphxTipHPk+3ji2dwMsahna9RyP/ZsX4OVBH+CPTfPx/Y79eLpVQ7Rsknjf9ybuZqe4aKkzmNC+z9to3qguvvni3ZLxidr7Q7gY3gxD/cTJ+UUggeDs/LzmFovlkgexoEM/DEB84qJjVvN5vMFjA/wx3N8fZtYBud2COUoNLjJc/H1wI2xqKY3gEdXzxNlrSIiLRGhIYPVMkMMFw+GBtbl71XPyi5A07GOMH9oLIwd0pV4CAsiuyJCS9161WvFBkZpof9fSs7PaE1nvSVAeBiANE+IkV/kMwxyPjaZrybeR3DXgiMGMz9VaXEz5EQ6dHP3Hfoofln/sFsF40AmW5RCerxjgcGHT3Gl4Oi3zLcumoGFCLHWddPiHa3ZEOu0ZVxspVUBqd0CqkD+v1WqJ1uWx9qDrreqEfGKjYtYKeLyB80LE6CQUoshmgYUeAoCNZdG7QI73JvwHA7u1Rb5Ugciw0iySyo6dqkyCqLBaK4PY4FJ7hDxXWKTEhE+WIytXSj0BxO45cOwcFs5Zi5VhQW5Dy+0ODJMq4HCwqenZmW09ySWeBqRuQrwklQMwf8fGUACkdvdjY5RUgUK7Ayf3LIOAz6VHhQuI6gDkxu1srNz4C7U9iK/q1MUb+OSLDTRaOHZID4wa2L3knSMmL0Td9BwM8XcHj6AzpFABlcPhcVniSUCY8NDQ4b5C0dphfn4YFxiAQpsZ9jtCqiq7A0OkCvD5POxaOwOR4cHQ6gzo8sZHWLd0OhpGu3t5q8IVZfs4WBZtksbDZncQHw3lwDGDuqNHp7aUKwpkCvznnc/w24Y5eLL7OKwMDkA4j1s6RPEOuWS2YopCDavV+k1WXu4YAHfGi+93ahX29yQggXVi485xOBxJSkw0iEVQeAd3uGb0l8mMOUotZQ2XxR4fF4Vftn5VHEOvfK0cHsk0daYGDRg/Gz07taPWeFhwICU8aWRs8g6L1YpTF25i7rLNyC0owvLZE6jfq8fwqW4CvexbCbe+SjQuB8xp2RkkXuIRu8STgNRLiJfc8ONwmEPRUSiyW2BhnbKjoqb5J8twukKD21Yb5aFTBzZBKPSGVS11ZiJWdJaV+VwQEAqbXoWiIjmCAv0wYPwcXL+dA6K8ln28b7f2+P3P01SAk8+njB+Avt1fwNB3FkB+MxMrQgPBMs6s7Tv/fiDXgGhdedLCp41GI0kZqvbmMUCC/P27i4PEP7/h54eJgQHIK9asKlvBGbMFMxQabPl6Ppo1rgerK/+qmKp5BUWIiggpJ2j4vmJYdQpqw+z+ega8vbygNxqx/dej+PnASaowGIxmdOnwJNIy89G0gQQThyfDVyQEcbu06TEeM8T+aOnFL8HeNVfXXiDH1scKDYxm08y8ggLiobx3imRli63ge08Bwo+Nil4t4PP/szsyAkFcBsoy2SLu83At1/mp0cGif6EcnTq0xZK578FhMcJm0JZwyP6UM9SYCwsJcgOFnEqEkxysg1rh3y58Fw0T4yrlLEL9Nz9aglNnr2FHZHCFnOHiFOIlSy6QE23rZnp25pMAtA9A83s+4ilAAuvExV/iMEzMqdgYFNnNsN4Rmr3brMiWG1Qoh4nh4MLRrfTAsZLEuGIOIR7hdskT8ddPS5zB8wqOs4ycAiSPmg5yRSE6IgTx0WE0OZv0J8afJDoMYwb3oGBl58nQc/hUyh2tvPgVDed2WvbKlxOl3Z6WmSEBkPO4ABKTEC/J4ABcou5W9bhyLS7HZsdYmRLbNyxEw3oSCgiNtRcT/8hfF7Hiuz3YvHTKXTlAVqTEuGlLkZ5VALvDQQU78e52at8aH08YBIbhUJZ6qsd4cOx2bAsX31V2lJUlw6VKFP2jGaZlZjQAQNxB1do8xSEJxP4QczjUkVhwh3ZVFftitFQJblgw9u1YAYfVSgV22a06c/F3NJA0+93hlR9LFEliDZWCSj56d/Zq7E85Sy+c7IgIRrESdk/94VOlFidNFmTn5bayWq3nqxUND/qymiTESy434POxNiwESkfFSeX3SlQYVqiAwuHA3m0rEBMdBqu6mEvKaFtjP/oSPt4CLJz638pBKX7OJWsWrtmG73bsp5zCsg7q8Pw+XAyiPN9NyyKfb9Qa8IPOiMIimUfi7p7ikOYJ8ZILz3p74xOxP0z3UHfv3GFEy/pUoS0xIMk1tb/2baBEs2rld8gMBv/9cDFSM3KpUUmus1UmBPIK5Bg0YS6NCgr8giB5eRByju6CQZpNOWVdmBhirtPTW5Gm/ZvBhBVqPeQKebJKq/3pseAQPtAqLl5ytss/vqvxAcJiz9U9ps4AcpsDk4pUUNNbTwyC6rWAVa+BLi8NEeEh2LNpCbz5DGwGjTvRwWL91r00Vt6mZQPMeX8EggP9S6lJjEXWgVPnb2Dqwm8hk6ucxOZwIAyNQcyzSdTxmHPkJ+il2RSEBcEBaMjnVcgpR4wWfK7SQq5S9lWr1dseK0Be8vHBxMDyfqGyiyDkn6nQ4KzZ6YkIbvw0Qho9VZJ+mHlwK0yKQvpdaIgY3V5sg7Yt6yM+Ohw/7T2G1Zt+LUcTLpeDQH9f8HhcqDV6mIrHLtvRtft5Qj/U7TqUfpV34le6AUj7KMgPbb0F5TjlkNGMRSo9ilSKxwcQAC0S4iXnWwoEmBnsf9dNlGI0Y4HKqcr7hEQh9vlkunPLNpvFjLTfvgVsFqScOIFDhw7i5vUbSE1NxbFjxzDEzxeNBAJ8p9HimtUpqwgHdHq2FTJzpQgPDUTSS23RtL4EvcfMAM9mxzfhYUjg81Fos6F7fgECWnZAcGwieF7eUKddQcHZQ5RTtkUEl5Mp23VGfKs1QCaT9tAaDNWelO0pGdI0IV5yKYLLxeo7XNmEYCaWxftFKqTbiKnFIK5DbwpI2WY2aKGW5tCcKUJiU+5tWOW5mDRpIvr26weL1YIOzz0PYue4zGXy9xe9Hp8qlLRKQJMGErzc/gnYbFZ89c1uJItE+EgcBIPDBo3D6aLplV8E30ZtwPH2hTBADL+QCMgupEB56zzWhQUhmMtxkyWLVDoQLsnMzXneZrNVe2zEU4DUSYiX3OYBzJ3BnnlKDY6bnMeTwD8Yks4DSpx/xNbQq4qgV5K7/c7mZk+yDujTL1ONi8flQuBw4EBUJGQOc4mFTRz4oVwvLFdrsEWnQ0M+Hwl8LnbojSA+NSHD0BAAURJYhgGxK0x1moFcbyCNy+PBiwHy/95HVWFyga6s1jVepkKWzU7skFYka/WxkCHkuK8bF3+LYZiA3WWib0qHA0MLFFTghjZ/FuL6rYuJ7oBamguzXlNufTSb/Y4YCVg7DFk3wFcW4reocBqfL6sVCRg+Nmp12KrT48eIcDCwoU+BHItCgtFCIIDS4SwoQMadXKRGbnxT8PzEJe8xpF+CQF2EzZFiuiHKvr93vpzcDGXTPJSQ7SkO8YmNjvlVwON12BIeDCGxuMi9Y4cDAwoVEEVKEPNsD/qZPOc2bBZnSLeidnePCwv9ucM4HB0BucPi5oMiLpIALh8/6fRIt1rxjLcA78nV2B0ZBgJm2R0/QaaCokEbcASkVIqzqS8ewRChAH18fcr5tqjrhGXl6VmZjchd0ceEQ6ZzQsRfTgrw8184McAXLwlJfRhnozEFkpn42ngqP5T5GbAY735vn2VJaRN3F7prx6ovHMaJqAjIyBFUgd0wX6mlx2NoWBiaNm2CwwcPIZTLQWMBH/X5PIRxufhUqUFAK3IZiLyHSCsW6nOHaOYJSXMtO26hzQHiQTBbzdty8vMHe+Iuoqc4BDwenouPlhyN5nGxIrQ0Rk1U3NNmCyKe7IQASSOY9BqoC0nZkfvlEMCYdR1LOVaE8xxuO9nBgBJOwxdg1y6n7ebl7Q2ZTIalXy3F+Ru30TqpL9JOH0fm+ZPwb/osGL4X7Wc3amG8fgo7I4LL2SHLNHrsNZhQKC8aoNPpfnic3O9kbZK6cfGXGYYRlU2rkdntGEH8VAIfJPYcCVKFQZpx90zNimSIi0NYqxn+109ieWhAyU7OsNrxjlyFes+/gmt/7sXkdydj0BtvoPNLL+HH7dtx7uxZbD5yFo1eeIXKh7zrF3Fw7SL4N2tPOUSXdhHtLVpMCvQtJ7v6FihgZlkiP4jwq3aBTojmMQ4hpkVEeMRSkbf38GlB/njS2xliJa13fhGtj1Qv+U2arV6YduWBOISe9+cOYVloIE6azNTHZOXy0HvaFxAGBCHt9DEc+34lDv15GCCu+Oho7N61C3suZyGu2RP0ncc3rUGhzlIiQ9RnD2JNeBDCORw3DlHaHRgqVcJut13MzMl50VOZJ54EhOEBz8fHSw77czjUcedqazQ67NGbEPFUZwTEN4Qs8zoc9orri7k4RHPtJIJbvgCL2eS2cy2KfBgyr1HLnoA7cMFaMCQxrjhgteWD0UjulYTZ8+bBYrFg4/ff44LBC8FxdWA1m/DjzMnwrdeachgJhumvnMDOSKcKXFa7+kShwTmzFQVFssF6vX4z6V7dAt3THELGj5TExB7jcrl11oeJqZFFmoVl8VqBnDr36rwymBqAJp26wvURoU5ELeGEesn/RVHWLXqHxL2x0Fw6huQpC+Ardk9yU+Rk4OfPpmLXnl3omZSEYSNGwpDwFLx9/bBrzntAFAlrFGuBqefR2qLDFLGfm0xyRQpZljWnZWW2BOCxbHhPcgihGVfk49MvIix8UxSX65aANrRQAWKXNHjtLZj1WqgKs+4CiJNcqgtHUD/5v5BnpcJuI3ZE6Q62qqQwZFxF/9nL4SXyddoOxRxC/m5+fxQmvz0Jw0ePwqgRIxDdfSjkWWn4c8cWCEJi3LSrVaFBiORx3MZfXGydq7W6WUWKInJXzmOVHjwNCCFyHUlM7GEulxu3JCQQdfjO4jFOJ50W9V4lsQwOPbYqai47RHv1BBKTRkCenQobLcNUGot3mPXQXj1JiRiR0BAvjv4f+N6ldkX2pTP4a+NKHDmWgp5JPdDpvfnY+O5I+DV9tuSVVlUhjOlXsOsO7YrE+F8vVJCIpSktK7PdP2H1C57QrlwTeRiAcAUCQVJsZNRPAjDYVnw+G+hC5Yh+Jgm+UXXuKthdMkR3+zzqdh5IAbFb3TmEQsM6qBpsURTQtYXEJ6DDiElUuBOXzHeThmDZ8qV498MpCIlPhMrhBQ7fq4QTVBePoIOAi7cDfUFSR9dpDFQ9J3430ux2+9WMnOxenr4u/TAAIesJi4mIWuflJejeyccLEwL9KCGIkegbUw9RbbvcExAygD7tAup2GlCGQ+4mUlknMEX5VEvie3mjdY/+kGenI//SaXgHh0Or0UJYlxSzcTaH2QDt1b8wIcAXq4i7nnW6VYjneeSokTh+7DiuXL5MLPRr6VmZHs2Af1iAkPe0qRsXf5BhGOH84AA0EvBpdonRS4iE7sMhy7wBh718/Sv97YsQ1m0G7bW/kdh92N05xOXzdTjA2m3UvjHLsmGRlU8w9I5OhN2gBWuzwmE1w2Fy9xRERUfh42nT0Klz5xLH54J587Fm1Srk50mfMlgNpz2hYT0MLavsvAUCgaBHbGQUjbJt+udSzDylFhetdjToMw6KvHRYTYZy6zRk3ywmKkvjJYqsG7Co5ZSgJG0UdpIt7NzRVUhwvGe/fv37Y+bsT8HlcskRhdycHAhFIoSEhNBjr37dRNjs1p8yc3IGeOp27sPiEBehA8X+gROCAgNn8Bigh8gHO/VGNOgzHlpFIQxq97swutTzsGmU5WQoKWQWHRNDyze1eqI1GjRogPDwcPgHBNAiZ4SgtNCZzQalQokrly9hz67d2L9/P41ICvwCkX9yH/gCPs6cP4ctmzZjwbx5OH7yLwSJxRg6eDCUShW2bt8Gb+9SP1ynji8iIyPdlpaZSe7XZXqCSx42IOR9UeGhoTN8haIRrgURTcts1ENT5njhe/nAPzgCXIEX1WEV105j0ccT0bYduZ5xf02n1SInMws9evZE/T7j6MMZ+zbDolXgVtrt4t2fgP0H9iMtPQNNmjWFl5fTt+Xn50cT7kj7Zt16zJ41C9LCgvZakynl/mZRtd4PGxDXMVkvIjR0pkgo6k8+SOg+DI5iz++d0yZWN0/gBdakx/jkjhg0mDhZ769pVCrICgvRpWs31O89DlazEfmnD8BUkIEbt1PB4XLQunlLLFu2FO2eew47t++AyWxCbGys819cHAXl1vXr6Na1G4nRL8wtyHvXE+rvowCEUJNsOUlYcMhkP1/fN+M69gXPNwCKXGeCQdnmskMcFhM6JoZi4eJF94cGAAqIVIquXbrBv2UH+jzJqtenXUbK8WOIiIzE6BEj8cILz2PQkCFUfkilUvh4+8A/wL+EQzL+ieN37vwyqRTxR0ZuLgnoVLuB+KgAoZzC4/GeiY+OSYls2xXCsBgarKoIECqwHXYEqDJw4PChBwKkSCqlHOLfogMV7DajFrrrp/DF4kXo0asXli9dhoL8PMycPRtZWVlQKhTU92U2WxAkDkLjxo2RnpqKLq90gdFk3pJbkDfEE2VlHyUghLAtE+Il50JbtIdfbH2qad2NQ4gOpb+Ugmu3btzRpdRivxtShEMIIN27J0HUzFl9jhTMVF9KQXJyMubMm0sF+x/79mH6DGcdFJILTIoKEFuEHFdESbCYzejSpStUGvU4uVK50hMOxkcNSLOEeMlFcYMn4FenCXUy3pVDiKv9/CEqhO/ZKsBHq9FAVlCAnj17wbvxMzQ2SGr+qi8cQXx8PFavWY3Tp09j2bLlWL5sKQwGA1QqNZRKJUJDQxAXF0cB2vLDD1i/bj1uZ2Y8DeDxurBTxXOF5gB7BYYisGk7mA3u5ZnoTi5zJUZz6SiuXL0MPr/ikhl3eyfRsqT5+ejT5zVw65HaJ07UVOcOwUsgQPPmzWkZ82J7hnprGjZogL59+6J5i+YQCYXYvXsPVq5aBavF8kd2fh6xQzxyX/1Rc0hiQjyt8EDnwQ8Kh0jS2K1oYtmIoe7WWezcuhGNGpH8gqo3suMLcnIwctRoaMR1nfdErGZoLh+ng+iMho1FcvkfdrudEJlTJy5+A4dhAghXkP1AjisyQYvNdiE7N2ckqc3pieOKHpVVX5ZHegqFQuHA8OCQuRwOpySQIQiNgU9MYnFmeul7zQXpGPFaEia9414VrrKZmc1m5GZmYtq0T3DypNMr7DrZWJZVpWdlEsFChBMJtBANkORcRXK5XJIHy4PdbrADJGBD6jCSOMG/q3F+jwk/akDI1MiiE7lcbuOosIhJAgGfVN6hjSvyh09sA3B9SPF9htbtjYQOv+79vTIM3L4nFntWWhpWrFiJnNxc9O6djCkffUwKpGVnZGf1BUDqK5YlMgGF/ksEmFQnUCRO5ZEoYdnJ1gRAXJxKBEM0l8t9IjIs/G0vgaCdq+Krc0czRE8GCR1dv3V/F5dIhJHYEEQoE3dLo4YNMWTIUOTn56elZ2eRCGC13xW8rx1TpnNNAaTs/OlPG/1zqal5sFj8kp9Q9BqXw40oTpui4F25cb3EtVHxwt2vAhEZkHbrFvbs3oPIqEg8+eSTVFvavHmLJS0row5JfH9QAlb3czUREBfHkHIKpFolAYfIF4FQKEyMDA1btemHLWjzNNE8y7R73JNzAXLw4EH6wIsvEidhBsaMHkNUWKIheCxGfr+A1VRA7lwHjRcBIHbL+Zc6dcKqtWvua623b97Eqb9PISMzg6qzxMjr0aPnI6/1XtFC72thj7hziCQ27pSXQCC5nnqrClMpZRtyZF27dg0H9h/AuPHjqCpL3CB6o2FagVT6qScchVWYYLkujwuHlCheIeKQKQF+vjOu3rwBgaA0+a6yxedkZiIzMxNz585Fy5Yt8dsvv0GtUUOl046Xy+XLawGpjIIVf8/wwGsXHx9zbO6C+fTiTlWbQi5HbnY2kl9Npo+wLGszm837cgsVkwHLtaqO4+l+jxuHEHrE1Y2LvxATExP457GqxYjI8VSQlwfiQunapSs0Ov1SmZz+MhtxjJE0lRrzs6yPIyCCiLCwuSIf4Tu9kl/FiJGjkFgvkfq3XGWYXLvYarVCWlAAk9FIsx3JkfXmmDdhNJtX5BbkvVWTgHDN+XEEhMy5XUK85FjZ44MUABCJhAgICITIV0R/VJL8fpVKpaJCDtJRAAAAxklEQVTeWxJ0cjWFSj1WqVauehiW9/0ecY8jIGSNQVwu92VxUFAnoZd3ey6XG8OA8SaF/csRgP7wJ2thWVZns9tTZQr5GpPJRHwvNcYYdNtY94tgDepPVCxiOJLbQCS1nqSHEKeXqz4fTWgv/gVPcl+aOAeJf5/85h4JvVZ7ravqoM3jyiEPYk/VSAAeZCHVAXztGFWkwP8XDqnicmt+t1pAahhGtYDUAlLDKFDDplPLIbWA1DAK1LDp1HJILSA1jAI1bDr/BzspEDcj2+fuAAAAAElFTkSuQmCC;" vertex="1" parent="1">
          <mxGeometry x="1563" y="242" width="100" height="100" as="geometry" />
        </mxCell>
        <mxCell id="S4DxvhHedHkcSoAMQ83i-92" value="" style="edgeStyle=orthogonalEdgeStyle;rounded=0;orthogonalLoop=1;jettySize=auto;html=1;" edge="1" parent="1" source="S4DxvhHedHkcSoAMQ83i-91" target="S4DxvhHedHkcSoAMQ83i-88">
          <mxGeometry relative="1" as="geometry" />
        </mxCell>
        <mxCell id="S4DxvhHedHkcSoAMQ83i-93" style="edgeStyle=orthogonalEdgeStyle;rounded=0;orthogonalLoop=1;jettySize=auto;html=1;entryX=0.5;entryY=1;entryDx=0;entryDy=0;" edge="1" parent="1" source="S4DxvhHedHkcSoAMQ83i-91" target="S4DxvhHedHkcSoAMQ83i-90">
          <mxGeometry relative="1" as="geometry" />
        </mxCell>
        <mxCell id="S4DxvhHedHkcSoAMQ83i-109" style="edgeStyle=orthogonalEdgeStyle;rounded=0;orthogonalLoop=1;jettySize=auto;html=1;entryX=0;entryY=0.5;entryDx=0;entryDy=0;exitX=1.01;exitY=0.342;exitDx=0;exitDy=0;exitPerimeter=0;" edge="1" parent="1" source="S4DxvhHedHkcSoAMQ83i-91" target="S4DxvhHedHkcSoAMQ83i-107">
          <mxGeometry relative="1" as="geometry" />
        </mxCell>
        <mxCell id="S4DxvhHedHkcSoAMQ83i-91" value="" style="verticalLabelPosition=bottom;html=1;verticalAlign=top;align=center;strokeColor=none;fillColor=#00BEF2;shape=mxgraph.azure.computer;pointerEvents=1;" vertex="1" parent="1">
          <mxGeometry x="1574.29" y="385" width="75.71" height="80" as="geometry" />
        </mxCell>
        <mxCell id="S4DxvhHedHkcSoAMQ83i-94" style="edgeStyle=orthogonalEdgeStyle;rounded=0;orthogonalLoop=1;jettySize=auto;html=1;entryX=0.5;entryY=0;entryDx=0;entryDy=0;entryPerimeter=0;" edge="1" parent="1" source="S4DxvhHedHkcSoAMQ83i-90" target="S4DxvhHedHkcSoAMQ83i-91">
          <mxGeometry relative="1" as="geometry" />
        </mxCell>
        <mxCell id="S4DxvhHedHkcSoAMQ83i-102" style="edgeStyle=orthogonalEdgeStyle;rounded=0;orthogonalLoop=1;jettySize=auto;html=1;" edge="1" parent="1" source="S4DxvhHedHkcSoAMQ83i-98" target="S4DxvhHedHkcSoAMQ83i-16">
          <mxGeometry relative="1" as="geometry">
            <Array as="points">
              <mxPoint x="1612" y="-30" />
            </Array>
          </mxGeometry>
        </mxCell>
        <mxCell id="S4DxvhHedHkcSoAMQ83i-98" value="Push local Jenkins to ECR" style="sketch=0;aspect=fixed;pointerEvents=1;shadow=0;dashed=0;html=1;strokeColor=none;labelPosition=center;verticalLabelPosition=bottom;verticalAlign=top;align=center;fillColor=#00188D;shape=mxgraph.azure.script_file" vertex="1" parent="1">
          <mxGeometry x="1588.64" y="102" width="47" height="50" as="geometry" />
        </mxCell>
        <mxCell id="S4DxvhHedHkcSoAMQ83i-100" style="edgeStyle=orthogonalEdgeStyle;rounded=0;orthogonalLoop=1;jettySize=auto;html=1;entryX=0.5;entryY=1;entryDx=0;entryDy=0;entryPerimeter=0;" edge="1" parent="1" source="S4DxvhHedHkcSoAMQ83i-90" target="S4DxvhHedHkcSoAMQ83i-98">
          <mxGeometry relative="1" as="geometry" />
        </mxCell>
        <mxCell id="S4DxvhHedHkcSoAMQ83i-103" value="Push Jenkins Volumes to ECR" style="sketch=0;aspect=fixed;pointerEvents=1;shadow=0;dashed=0;html=1;strokeColor=none;labelPosition=center;verticalLabelPosition=bottom;verticalAlign=top;align=center;fillColor=#00188D;shape=mxgraph.azure.script_file" vertex="1" parent="1">
          <mxGeometry x="1790" y="465" width="47" height="50" as="geometry" />
        </mxCell>
        <mxCell id="S4DxvhHedHkcSoAMQ83i-106" style="edgeStyle=orthogonalEdgeStyle;rounded=0;orthogonalLoop=1;jettySize=auto;html=1;entryX=0.5;entryY=0;entryDx=0;entryDy=0;entryPerimeter=0;" edge="1" parent="1" source="S4DxvhHedHkcSoAMQ83i-90" target="S4DxvhHedHkcSoAMQ83i-103">
          <mxGeometry relative="1" as="geometry" />
        </mxCell>
        <mxCell id="S4DxvhHedHkcSoAMQ83i-107" value="" style="shape=image;verticalLabelPosition=bottom;labelBackgroundColor=default;verticalAlign=top;aspect=fixed;imageAspect=0;image=data:image/png,iVBORw0KGgoAAAANSUhEUgAAAGQAAABkCAYAAABw4pVUAAAAAXNSR0IArs4c6QAAIABJREFUeF7VfQm8HEW571e9z0zPzFnmnDlLTnKy7xCSgCwiEIHngrwHAhr0IiiPC8QNRblPrxofeEVFeCqLuwJe4cIDRXgXAjwSvAmEQNhi2LIBSc6+zz7dXXX9uqdnpme6Z3pOEuDW78dP5FRXffX961vrqxoC/0XbqaeuF9K7hqM6pb35XHJFhiaPz+rJY0JidF5KG98ZkTseCArND4cDsV2b3lyf/a+yTPJeJfRUWC+ku3NRg07NyuWmjsnQqeMz+sTKdH5qVpYmIpqRFQymEwBmLiEix5lBNcjqUwSAgME0879zhAeFD+fCUtveiNKxQeWa/8wZLS9uH//B5Htx7e8pQE6YcVX3aOrguuHMnksFTmoZSe/jWYHh3swj0K0uNfqSr/AMqNktFuilI5k3Oa9vOMJBTFmU7AzOveKl0V//K9iovgcQelcBOR/u4ffENx47mnnzm8OZvWdktEnZBqBLXUL7kq94MhV5J/MhCEttVcxHgA4md/Je/JX5ENMNyZSuoBjJzgov/qfFY2fdfC9cYLzbmLwrgJwU+3zXGB3ZtGdy67y8kSmjAdWP9X+71eX0YHKHJyDtwXl0PLuf02iuiocBIcIyeqKozio7tAfn09H0sGNshQ/pPdHF/xIaC123HX5p6bt3ob2jgJwP5/MvNidv3TPxxGVhaQY1aJaIfBzGswer6OgMLdb7U68KlTxBm9ARWmiqqFpqLChEWVqfcF3fDPUYoz+5z/V7iVdoj7ro563hrqufPnBT5p3G5B0DZEX7pWfsGn/oLyltWMFFKkIzy+rjpgHuUo8zBlNv87Yhxr+3KDPpWPZtxy6OSnGmMw1S2lhdurvVZcbB5N+KTMcPLPMPEJVms2Qe5/ZuAieyGeGF98T45Zc9M7Z+6p0Cpu7CDpWQU3u/3PT68JaN/annV9hjEeCB50TQackblfkIi8qL2VB6jwlCUGyGtDZe+KTacNejq1WZSUcrAMVvcF6OhYEyywFwtpLKtP87TwToCM17dJa65NP/MfD94XrzHurfjyQgZFHLud/ZPbHh2zrNOuYROAUMlgfmwpT24HI6mZviKDNApzmQ+KCr4XYsvHz7F/6AjATgzHnKW5PcTRO5VE1nwY2p6JnFg7O3zYwsvuCp/h+/daiM9/r+iACyuu3yY3ZNPbJxMrc/6jZxQGhhGk17zs1zErQHVhsazZORzD4OgZlOs93fcrxmhFcY/Yk3a9if2jMRINAemvlad3j+ec8O3LJzOnTV+uawAnLCjKsC+6eeffDg1NYP2u4rR0QICE0sLHVTQgTIG1OcKvYa+xPbqgx2OaFhqYOp4gyq0zQZTL/R8I7GsbrM+MRyf21Q2gKL6FhmYFrjldNHCIGZkaX7u6Lzj9789vW2bj1kfA4bIMtin7x87+TGmwVOISExThljXFLrJ2lthNBC1BwQmhlPmkHiw2wsu68mUzpDRxsI4EByHx+WWpksimwotbshRlruL0buViOEA5nEQKNONdYIFwVOhLbgTGMyN8KltUkSFMO5Fa1n9Bwu+3JYAOkJn7x7JPP6nKwxQRhzj62aldk0mU9zGs1AR2ixMZB61VNtiKaNEc20BzAJKNNNnkWkGBV5DoYze30CQ6Dc/Q2KLSynUc81V5v0ElQhMcoicowOpd7ijQI99l8Dgqot7/jA7KcP3HSwEXDd+h4yIEtbL1i3c/S+m2sR0hE6xhjENEjBiHepRxt9yZc8AZkRXmkcSLxm/r0juJAOpd9yABCR26jAAaB9qceAcve3K7TUGEwdrJ7XxSmwJSoWQLWZg/HsYJ2sQdBYFjtp/rbBm/fVo+mI2ZBVzddEX568ZVyj5dG2c7pu9YSqNMYMdYVxIPmiKyBoNGWhjWX1pLlZYoGZdCwz5MqMqNxOOY7CaFXeqrTXy+OZrtDRxmDqrToGnYHEByAW6DFGMwf5nJH2zV8MKpfET166ve/m13x/VNHxkCQkHjj61cHM3xa5ih7hoCN4nDGQwqSfs3WpR+l9yZddjXq7KRH7iwAgQArfxHKOFItzvCalgwLkyVj27ar1WO6vlf1VhR7I6AlPXkXlNqoIIRhKv825ueR+mCxyEj0qdurKbUM/e8lP/8o+0wZkaWztpTtH7vmV26QYZ0SkBXQs655xtZj+uuuub1YwR9XHOVxVdbnRl9xV11VtVjophQyMZw84xkb3dzI3yDGqgJURLi0b7VR7cJaR0ie5RG502vwo54PASWxZ2wdO2D54yzONgjItAk5tW69uGb1xUqMpruhPFmYOijEGoEK6RnqjRel1BUuV2lgyj/GJU6ZUsYVltAypn4q3iGhROqnO0mQiZ+XI0P3NG2kynhkvAhUQVIb9BtNv8foheF1eDEfJXBw/Zc1LA7dubASUaQHSEVr98kDqheWVE7Uo8+hUftI9kCvb8mEpzhL5waq5u9QVRl/yDVdJiErdLJFvZAczaA3MoHk6RfJGCmLKPNaf3Mc1Bzop7qLRTB9XG2BUlqavDDxwAIQzvT6eCIznBMaDQHieZwKRGUd4QgjHOMIxxoAwoEThg5QQnrQGOpZv7f8/r/oFpWFAlsc+deGOkbvxUMfROkIrjcHU3uIhkTcBHASEMMvokxXpFBkYk6HSpbTH6VaXGP3JvXXVltu8CEwsMBPyRobm9DSxGkeReRQMjlKDGowSg2lEpxpQaiAdBGlBDqOas/630ho6ZxM5CWLBbiOtTXGTuVGCkHYEZidPyChN98K9vs5aGgLkzPjVoU0jv5rKG8kyHY2JP/SkSpnVWrsBieQ52ZFYxP7d6jHGweTrNWITBEwAzHE12loDM4y0luGzeqr2px7ub/VHJS+OAActgThFFTWS6TNzcOWtVexmkWDrA7sn7zrHD90NAdKlHvdcX3L7KntgyyCudg/yPBbHmV4PFIM9UyugJyXEHVG1G/Hx4AI6nHam5OstEsdWxVbc6ySr1QGk3mBlf1fNQLGVjmT6+LzhVkNhgdYZmEMnM2PcovhRZzw7eNvj9abwDchRbRed9/Lwv95rDyhyQVDl2XQ8U3JR602Gf8coHI0oI7Rou2OBebiwukFeW7CXjqYby0N1qQuN/uQeXhGiUFdC6ixA5GRoC3YZifwEl6hznmIP1aMupCPJAU7mFX1B51mRpw98peahly9ATu1drzy9/yfJnDFlqpSQ2M4oUyDjcSJXa10yH4ac4YwFWpUFdLTCVXUbw8xFcRFw35HVXyADAXhzA0wXEEy7tygdFJOJI5n+huOTHnUBHUlaUX5M7XzxzeR9x9RW6T62dbd6wpaDyW0nYtfWwAI6kRvjjAZdRVuDYVFCIl86zw6JLSyt5Xy7tDN8xiRIqy0d+O8mIEbKd31JWMIMdQsdTh/k3c7t67PNUlld6hx9PDlaDILntS5d9+Lor271+r6uhKyIfe6jL47c/hCupFNdbQwkd3mU5jhTc89uewIuvPBS2LV7r2PuJrmHTuRKaq5LPcboQ2Pu06CGpRhL5a20SlUrG0OVWlg6nygC7UdCJF6BtkCXMZEb5VIaeoG10o31ITE3sNJB09lMUR2jy7y07biOpwZvGPJagufIH573BXnjm39MZPVJsTt8gnEw4c+TwgF37XoO5s2bAy+/9AqceOKZkEpbOaH24AJjKG3FGjyRgJAA4Dl5yaNkppGv5WBGxE6W1CrPxJ3MwxwYxhr24rwAQcckFuii6OLiOUk919YfDKVeaPwNrSw1gGf6Smv/weyD3W71YDUlZEb4pI19yedObQuspIPp1+oa3RIZDHbt2m4CYrc777gXLr7kcogHluj9qZ2mCNcKBJ0LdzJ7hrrM6Evu9nSR24KzjJG0M6vrBIRARGqhISnCUCUdzkgdNxPaG3SH0eYpfIBJEAKO4zCY5ARBMDgQoCXQ9tvnR35+WSXAnoAcE//s6TtH7nssKPQwOwXhf3dUA4LfYnD17a//lF13w3qC591BsYPhIY//ca2eMh8AnRLXM3k0wgofLdRllUZGQJCA1kAnHc8NcWkN67asaNxmIEbaGHWjWsGqEx4EwAMpgRMpRk884RlG5IwylCSGhRKUGrxhGFgBgDESMahRDCRVKcoCnAoCL9Lx5LBjA7VGO9KvTt4e8gXIqlWXiftf3ZqYyk/KWX06FTDugNiT53J5OOfDl7OHN24wmTKd1haYR0czziQijtOtLqqSHlVsYt3qQpbITTKD6oRSg+hMB2pQgoEcBWSiuWNMLVI7HvdHbVd4tpFKTPIczwNHZWBCnmW10jFFONhM42rPgqeGfrSnfERXbixqOf+xXeNPnl5eJ+WPDLtXbUDsXn0HB2HVqg/BwCDat8aAiQfnogfkUKN4jkEpc6RfutX5xmhqgA/LzSyZTblO4vAnfDoXXvyQBAVahHaaziZM2niOB47JIIoSS2ijBLWEKeVigEXUpnt2jv/+kzUBwfTIW/n9E2PZA5wsKCyljXKJ/ABprPLDHyA2IZs2Pg3/7UNrIZ/HCk5/wKAxFokK5S5pl7qgmO9Cj6lF7qLj6dJJX1topjGaGppWPqzuhiSAQSPVMnnMjRW7mwlJwLQPg3BYNYYT/eb8HMejKtMOaA9gsFQUyqrVHxW7ZO0rY5v+2Iop8tzbnGZkAfUyFgxEpDaK6bipXB+X1seJ9yFOY4DY1N/041/DV7+23iTeDzBYVI1ROH6PtCXyVnrdPN/ITlUZa1kIgmFg2satSK4uyz07cMBDpzrLSCTHq8BGwy6AUlgTgKLKdCI5YtIp8ALMaF24YtvQjcXDrCpAOkOnvdCffmNFd2ixMZEd4YAYrqWbAidBWIpRPPzP6hNkMtfPadQ+7pweIEgkpRQ+tfbzcPc9D9QFJSq3s0TOqippVrrYVG6UdIXmGcPJA64lpNivIzzHGEr08YeomYrgRORmJlIZNC3nrg4rAEGAKJ9jOT1LFCnIgor6+GtTd55pD1gxyHpO4v+g5Y0Mh/4HnkGk9SkSlpvoaKZ2Us9KEKosLLVTgeNg84t38LPn9vjcdtUSMTE+Bc0tiwvfe6uxsNjBVKmF5vQMIZQjGS1J7N5uxhmzsgIJHlIpkL0oNNzJxCSWxniuEz04AQJFCTHth6ywqfwIiQSbjVQ2AX3GaglgvSm2jpWu7rl82XP7H9xhj96sdNHJ7BiHPnU8NJP2pfzGIighW2DevF6fgFR303UDZKkXfn7bD+GLX/rngn2p7oepFIlTWf/kHsGvfxRXe+lwsoEkJWHwv79/BXz7n6yMhywEoEmI00zBcHsvkpmxSCUg2B/tCZ66jCWGhFkdC059duBnT1YBMi96zm93T267pHyCztBiYzBlle53qfONA8kdnkaxpAYODyDN8vHwzEt3w5Jlc+GXt/xfuPpLPwRgTmlpD82khPEwkR8i6XydmKZAIEpzyEytuHtdpfUzOPvcU+COe74HHEcgwp0IsVAXzWfyHFB3qahUhSghIgmaqriyNbe0aNlMTuzijj+wMXWFqU4cq4tIRyem8iNq+Yd428ighNjFah2huUZ/Cu9m1NqPhweQiLganttxLyxZNs8kCRd12cXfgbvu/H9F0pGeydSYuUnCgSaahzRMmGVDtaOJlmAHnUhPeGQfGMxf2AObtv0GIhGLHehoLIisNVLJCZ7hcS7zl7ioBcicyMkg59uRVG1Dbu3f1VYZIHht4Mm37ht385x6wsuMg4lSqqI10G16YHjJ0r0dGUDsuVKpDJx24mdg58t7IMK3M83QHBtLEYNMlHk6kjrA4zmtFzgtwW46kR51cFYNK7Bx669h0ZLZjqUhIN3chy1wCAFMhPhpXoA0hTqhl/sI5LQJc5gN2bXmGooLWdb6mSv+Nvq4a1oYfemggGlyTDdYTRWbmcZSJOMayR9ZQGwa9u0+CGuOuxymxlN2EsTBI4EXQQ1GjOH027xuVNfzhqQoy+bzZkaY4wB+98fvwrmfON2Vz9MFBFmMdyEN9LcLjecFWBb8FKC5z2l4GZjBSHZK2g7/WNpZHaGTXx9I7V3ghXp7cDYdSfdXRMYKKEKATeT6nYqdMNj1xqEb9ZLKmlvTBX74wS1w0bnfhlLJrZMcjKOioRY6luvDY1zHH+Nqr/GJyz7A/8sNXzRzWl4NBa2b+1DDEoIfyLzKDMMoDr4w+mEI0C5zrLyeBIaEc3rXhvQ/WIzEu39/5rZrGnX3pW0i282jVmf+yExfBzvpgKMyvQEJ8YgB0cuqtCH1VMT3vvUb+PF1fwAOy3bMVs3gaLCFpukETGVHuZNPWQl/efRWkCSx3tCmDZmOyqoEpE2dA93ktOJ8lGqg4cEZ5M/YkP3M4ybFqzsuP+65gQfrVtmhmspoWZfTPQJd4bnGgeJ5SQOAeLBiOoDgUPjd2rO/AU88/KxTjZW5P53dLbDx+V9CrL2pLhB2h8MBiCjIsCRwoZmaLzVmqq2/13J999HspzANDtAbPev+Nydf8FWm4nmESgAwSj5gXpChsH37I7ByZVUtnW8GNApIpaCNjU7CmtWXw/43BwvAAEiyCH/6/zfA+05a5puOYkfGoGsaRh2/V4Qw03WdLImeAxJtqZrbNOwMNm3IrT3NBCQkLkuntPGAHyoxZcIDRrruz4fgZZbhzG4e09qf+Mg/sDv+dC3xoxIq524UEC/aX3juNfjgsVfAN669BK7+54v8LNG1D0pIj/AxwPsvGFH49bJsQNqDC0k7O9517LyWwHGHNuTWxsnJHZe0bR54bMhvlIsjdqmLjIGk9z09vNiisxRhmkQwkfflqy+C7/3wKqzK9N0OFyAYu8T4D8Jjz9wKq46zUzF+yHDKHBr1syJ/AkyumpWMnAYaJCDLxiFDRyFjjENOS4LGckCpVfFot6ZgJ8zjz/V0TAyaA93IGBuyawWyuPXCa14dffJ6PyTafTDSbZJ72GRuqIrF1jXiuYYMEZJnaTaS2m8WRfA8B7+/6/vw8fOLeTSHHq00wLpOISKucgSGjdBo950+IM7ZioCYChDrfIUKW1BuFRA0HQySAY0kQGYtwLOgJ/nIn7w2acYiZFb4Iy+ljcnlEhfEyjWGiUW8l4fV4lrl1eUyw9isdNDJbCnSDYoR1i7Ppcl0gjcoXkFj0CS1mxWxeSHBRtNWwUE4EoInt94JixY7A69pq6w6mfp3A5DyahUEb07bUTCc2I+enScoufwkRHKcTOKhk18ZTO21ZLmM4VYNrggSF2CYxcV/OCIwneY4vN2UM1KkVZlF80aeBaGZJDKTVbmEllA7zaZyZhpDkmWW5saYldYAWLh4Nvx1650mQNWNgSUhztRJQxJSAAoBiQtnwhPbfg3LV08/2dmIhJTT2RmdA0E5bP4nzcjB/tHXXZNOeW0KdCCzSFvwpD3D6TdL5SE1Vo0g4UFVs9JNgQkkLLSyieQopxl597MAIBARYkzXtYKrzEBWFDYFgyyRHTOBOfe80+H2u39gqrTydvhsCIM1ym1w2+bzYfFxbQ1hWt55OoCY0tFe8DQxKUosu9I3vhcyWsJRimYYWQTsYyQWOH7/SGb/DDdKrTOOMGuWuxkBESazo1x5GWe3tIBhdJvIT5jG2621h7tpKpEuJvss54GBEgjQceMgSeUnzQD5ez+4Cr78tYuK0u4bkLoqi8Ea6Zdw21PnHmZAsLavdj6rI9ILIcX17QTI5JMmMDZImEPMaZM/Ik3KsQMT2b64pa1QAlQEgBKQyFR2jMsZ7rXBAVFlIa3ZlAw11ERHU+7nC5i2CJEW886F1crvWTAIhAJ0JP+2ebAkSgL85ZFb4ZTTjjUDvNlNZxsbtv6Et7O909neWPRwZADxNuqW9i+TDpvwMimxObF/5PViXUA+P7GZtAXePyZwUoQHhUzmRrmc7u9Fop7wIiOTSBW3SCTcYgwn+ly3THu4x0glkhV/s4GxxFhRFWMo+yaX1zOkPd5iGv6lc86G7X+7DxYumVUXCy9BsQD5Fdz21DmHWUJqAxKP9ILqIR2VFapT6VEYTh5ACRkhS1s/8/yu0ResiuzK05UabOiS5rN83vmojKo2GaPJgSpQMOuq0LDDNy8NXQIGdZeiykZ/ek8xO7vt5Xtg2fL5dQGp7mBBVF9C/BVUNGJDUNXPaT/KneYKKbE7Yand3sEXKDm65X9+ZSI//KP+pN/XEfDppDALak0uhpyAHFDoVNnlStsodIRnGolEoobStYAxU+GEgKSKxkBqD48HY9f/8Br4wtWO8iXfANUHpP5Qr2+dgh+dvxPSmRxM5ibqxiHxyCxQFY88WS38GTdBju/4cu+rg9v3MR5f9PR3SX5meJGRLlNX5UvCeiPKU5Yrq9LDv8tiAATNfLusRiuvHMQzCg5OPnsJ/dOf/52LRTvpb+/9Z27NGe+rz0FLQZsSfyiAjA/m4btnvAwTg/gakbX/0loaMloa8B0WZ5LQIqumdNRZOQfwAMHU+2PcoGYWHrs8+OU2Rpc4n+U1p7oq7yeJCksbSWIFiKXWFpphpFMlu+NNX0mNPbrjJuid2wlrP/It42/P7yM9zYu4u/76dYjPdJw0ew41HUD0vAE/PO9VeOOZ6jJawjiYyidAN9dWrSTikZmgKs119l3JBXZ0pPQT5ohdykcHprLj8Vg4bvQlrMIzr+atrpxfhAIRNp4dLpZO4l9DcoRBziyJ8tEsUB7dcSMsWmYZ9cG3k3DZsffD5GgGFq1uh59uPBukQG3XsxFA0E788Vv74LFf9VfRZ5ZlM86UWnR3xzKjgHrfarYeIjDXy3b4WDHHq20mcxY1ffq3Byb2XoIuKicwx1Ft5Tgzw4uNdJXHVOhV4RRE1BY6nHTeHWxVumi27AJLPSkpB8Tu+8wjB+Ab/+NhMHQKZ126BL5628meiUsbkF9vWwvzVkY8p9t6/wj8Yt0bUBlOWUDgFQPrnjpW7Zv3Vxg+fjPoiLrbwz0QDlSn110ndTHuN+3pNF+wgGPa1n1g1/ALZl1QWGmio1ksYnav2ugS57G8R5We28ThcLMxkug33zvBazjRYIzqaepZsoFBopUorZaQyvHvuO55+M36ZwFXcfUvToGPfrb62RUE5OzoffCTv54Jc4+pBuTAa2m49iM7IJdyXmcuB4IQDAKtpGJ5QzqHMwPF3Xgo0gFAsjft6QyYgKzqWh98o//xlF1x0hbucFSZ2ESExAgLaNG6KqfSew6EVDqRsupZsTVLHSyfr31c7AcQHMvQGXzrvA3w1ENvgRwQ4KebzoaFq0opEgTk052b4NpHVjkASU/p8N0P7YDBPdVxF9oJ886ICQRKhHfJj04NGMsOQz3pcHWuyqSEMPLsjXs7jysyt008I53RUuYhlVm6IvIsmXe+ezszvMRI13Rd3TUCijsv8TSVs0r0W9UOI5vM1VD+SBamsBk8sfMWmLeko64GTozn4fLj74eDeyahozcMv9j6cYjGZFMFfapzYxEQajC46eKdsONRF4NdkAKkF+1E4TpP3bmzeg7ammbW7VfVoRwQAl+9cXfXjUVA5oTP2zKU6DNv2mILyWE2kRtwnJ83qq7KCcDgMA85holIBDzCY9IRH9P3agxi6my4f+u3YNZSb91f+fWel8dg3fv/DNm0Bsd/eDZcd9/pcFHPk3Dtw6tgx5PjcM/1ewErHcXCAwZWwgg1tHUFDe2oJRF1FYE5dVCJwpx4L4gCQCKbhYlUGnI61qs1eu3HmH/Tnp7dxVmXxy69bN/IK78oX2Cb2mkcNO/yMcAapkA+4o9KDx4rcojhhXtMRLaHu41UIu0pJRi3LJDPg1u2nuoKSL34+tE/7IbfffWtorop2SYAAaSCaS4Z7JJ68rdEgVego3U+NBe8PMmsOyw1tC/pfB7GUynI5HLedZ4FKTmwp1O4F0ipVuiknq93vbR/s+PNQPN1N1kyy/xnhZfoqUTC5dGxeqxxEmonItFjCZEm15pXlKAl4fOApwG4eespDUlIJVPu+OZu2PCb/Q4iJJDBshOFf8zCIc7XnkbgEAiRVyAs489hWEMXAamRfsppOkyk05DIZJ1vtjBi3LS30+Rt2XZYzzXzGzXN0BwWLCiqbEofInF+DtP0eobYwQ5PsbcTkR3hHiOZSFa9ONcbPQGidJFZUGAD0hjspd62DSlSxjhQiOLLYDu3EoFYUy8EZSudLgtYTVLqIYrmS04NNd2gMJnJQDKTfe3612PmIaFjiBnBj709kR51XOpAKelq6jVTJdTQD9OVSABVjRpTmXFepqoj6RgNxmE2f1bhJisC8gGYtdT9TMF99RXFCQWjbvUlIDAJJE7xbbDxq4jaAU2hkmOBUoHSUd4EAa+pNYRHsTMVILxuE0lWAbKk+aKf7R/f83lZVFhEbqECEwgGcbPFM0BhLcA4CpTLQp6bhDQbhJQxAhlt0jyadBRp+8oaE5ACMg3wYUglreeeymterTeqShIyvaVC0csyv2ccBLgQ4I0NP02Ro9DehMe+zq0fdUnJIRgISqONMrh+3Rbyv+zvHDOd2P21FQcGd7+g66XC5M7QMojmrCN3kZc9nA8GjNNB45KQJSOQMgYhpY9BXk8D3tv28jgwESkpSjFQXBT9GCi03eLdEQGEhyCn1owrcG7bYFuRubOV243yv6C6QrVV3nyo2ewVm4mjHq5K681VLhjMZFMmVxQpDL3UKjC2mzco7nuDEcOUqhw3AWk2BEljCLJaArAaHaUKE5EBSWURfhYXZycUBzk0QNxtCGGCKSFegZ5psFvmgyi4Z6XRZqDt8GolT8sHFBhp6bBk3VbieP6vCpDj4uvOOjD45oPo6SyQzwKiVxNXExRf6qogA1hsxk2BLkwBgiFw+DMWQuEf9IAArt24FLoX+SqqdOVTuVG37EfABRCnwXYbyM1uVPardH1rqS/GYOOVW8iayj5ufgHpFT+ejsvLlFDWu3aqUUnxIs50GiLzQZGCDnWIEoKHU996fAF0L6x3juK99HJAFAgC/jhAuYREQnGeukL0AAAIc0lEQVRoUjtr8c78m5vdOARAWGsniBfcS6reK3R11I5v+vYNweScrzoVYnUOvwSKPxGt3g0cdEfnWwkLTgChzCrWBKSB6UqAELAAsQ6WFDkCbU2zi4XYtRDxsht+AakklwJcuG4zucttTldA1sN67q9Cr/MExuMsGEvsp9MwVzQj6jwrl0SlKCVVgDQAgsOwFtxeDARlEgBJUKGzdWEhlV6fcttuVE7vRo7PWKTvis0En2ZybZ6hzAel2z/BKLu7ZGU9TrnQ+/IJir0I3KXdEesiZ3kz7UdBSmxAAk0A33hoAbTNmp7aQgm5tOd50PUcdLcuBkWImBG6n4ZHaWoD+807FinBlxWg+apNxLpY6NJqxpZrhNuHAJiVy/aQEGtMAqJQkcwpTFa5k/DRsq6Id6GkJNmMtx6RoWAdA/csVeCaPy0EKeB5cdYisWKRCMjXlvSBIoXMJy44EH0DUtduVDgw9WIRyujN67bwX6i1GWoCcqZ6R7uepYN+dlMtUOzv8VHKjjDqbe9cKNYT8wL6/wgI3sWwCrftU9ITzmuGi3/ciw9Nu7RqRYKAfHPFqJm7wvvifgHxazfKiXCLRcr+nr9iM6krb3WzL2vE2/8NGLugNHAtdnpLCv64V1ytdWZQYqYtJZbawres8J8SKIjohdfNgFMvql+rawOC4iMRjNLrS0i9eKPWBvVyfTUDVn7xafJCvc1dFxDUVWv4O3Rzi/lo6DEJFepLEcLQFvK0Y1Wj8rwIPG9FyaVnvlFasH64cM7AAASZwNX3zoc5K90q6K1hi4BgRhbUuoA0ajcqiXcDhAFsvXIzKUW9NfjoAxCANdLt5wBl9/vAw7Io+OAKb9mUkBSFlkB9P796YeVGvFAWhE/qgQ1Mqdgj3tMMX//LDAjHSmG0LW/lgIgQAh7w4c3C3nIR9ijGoI2eLZUR7wIIG/z7Acz6TcRZE+XBTF+A4LdrhNv7AVj9s9TCROjrNwXj0BywclONtnIpKX1rAWOpMetqGc6Driy2+ScosO72LuDF0rJsQJDHIgRMw+7lZU3HblSuq9L11Zlx6Re2CL/xu37fgHwwfHsry7ARSw9Y7oxViUGA4GNO5mGPKR9mF3zUC4M+ZpbQTG/LlTyuyuUgKBYgPC+XxRSWXJx+eRP892taq1QWSgdKiRsgARFA8vdaRk3eVri+I1dsJvUNXdmIvgHBb84Q77qY4+F3ftDuiszD39oodmXmCV1jL7mh2uMqLvJUSosk2j+jiul6a/xwuMn0wtbeEISlawKml2VtEjy8DVcBglOo7l67n6U6+qDpK5g/0Ai0f/E/SEM/19oQIDjz6fKdH+WJ8JA3pQwCYhRiQevpiBIiVjmBt7S4h+LeUmKNLEtREwjbIwsowYLbXPh7iEAuZUmoBYhqnhZazZqzbrxhL8JH4tR2fSmlv133FP+5RhFtGBATlMDdx/OMPe0+GYGe6MKadDSixmpJCaoelJAicwmBUEAtPPta/Tsj+NiLXCEhETziaYQLPkCRJNAv3wwSsa9HNYBKI6Q4hj0z/LtFRFOqfsonFuqBgOB+kdNvaU0l/V5SwvMKCHhoVmiRUHOh3tE6bbTe4y2pSYxB8JVpW0IOl92opJcX9BM//5TosWFrozNtQHDYNYF7ukVmYEmHOU69tIgbKX6kBeMaLHLGVr5BJRHzUtYSFDGIN32LU5j+GLVcZPx37IUJTYFg+gRfrEaXvDZzauUzcVokCf/X/sf8nRqAT165mRR/Z6UB4Siur9FvHP3fH721OZRtHkH/szuywCw0m06rB4yblMhi1PL2CIFwsMlFAPFBcGSrxVoTPIo/7CXVsRt2f4vpNuNrrYsy+osrt3BXTEdNlY97SBJiD3Q+3BOAaMtwVGn1Dpl9oFQLFEGQzXcPS42ALFkVjQgGut6+GiPQLMuOnV2+232NUdaJAbzEZ+DEf9xO/N12qjOBz1X4I/Oy+M73UaY9woAVtiu+yunv2/JeXsCUZ4Lxh8UEAc83ZFAU72crzHGLYbsVQ3VEvXJ8NZRUtTFP6gYc+4WnybR/ZtWNM9NgV30GXzFjx1F5zXic2Kl78xFJayrfQaILb/DcxZYESQgD4ThAQ16zDNf0eEtnOSFegpCCF2/qr8OjB2PU+NyVTwm+4rFGZzkigNhEfDb20kKOY08AwffsqqcyJcHkl3ckXykttpSg/QgFosCjdXZrbuc3jECLYqmrypIdP4xjQO8c2sxdvB6fBDpC7YgCYtO8rvOVWVkjv5EQVvPFmVpSZANjS0lIiUEwWHHP0JRC5ikxYUEC/D12bI1UiADA61MMjr1mC/H+ZePDBNA7AkhRYnqe7yJ5/nEC1PfDVeUgWekXBoqsQmtTd8EHrg2CPTdBY66UbIfP8++MocP7P7+VPH+Y+F13mHcUEJuay7pej1Ej+xgAXVGXwooOCFBzpANCQcvl9dvCogRimeGoUltOo80ogy+u20Ju9jv+4erXwJIO15Slcb7c+0JTMsP9OwD1dXhjmWceWpt7QJJkq76q0v5g3FHh2lVKh02B62ESY/cPbSHnH0k7UYuT7yogNmFXtu1Us0R7gCOsqpKvnHiOE6Elap08YpCHoJitZgEGQFSUgXeJUyrU1lsZA1Z+5Wkydvi3nv8R3xOA2OReNWN/IKGN/RsA/VjlErAAGlVVuT9mSoktDRXurZftcAJsVqznqQGnrXuaPOWfbUeu53sKEHuZ65fslA6O6n9gQM/H/yaJIYiobS7VKnjDqyLIsxErrCwqycA7VRgqtSkg8BShxu+/9Kxwz5Fjb+MjvycBKQIDG4X+zvh3miIdczhC2g1G2znCtRCAIAMIARBBkiTzVwOrm3mhmTUp0kEg8BAD/a6ALjx/uFIcjbPa3xf/CfIzM9wjyFi7AAAAAElFTkSuQmCC;" vertex="1" parent="1">
          <mxGeometry x="1690" y="362" width="100" height="100" as="geometry" />
        </mxCell>
        <mxCell id="S4DxvhHedHkcSoAMQ83i-108" style="edgeStyle=orthogonalEdgeStyle;rounded=0;orthogonalLoop=1;jettySize=auto;html=1;entryX=0.932;entryY=0.342;entryDx=0;entryDy=0;entryPerimeter=0;" edge="1" parent="1" source="S4DxvhHedHkcSoAMQ83i-107" target="S4DxvhHedHkcSoAMQ83i-91">
          <mxGeometry relative="1" as="geometry" />
        </mxCell>
        <mxCell id="S4DxvhHedHkcSoAMQ83i-69" style="edgeStyle=orthogonalEdgeStyle;rounded=0;orthogonalLoop=1;jettySize=auto;html=1;" edge="1" parent="1" source="S4DxvhHedHkcSoAMQ83i-32" target="S4DxvhHedHkcSoAMQ83i-47">
          <mxGeometry relative="1" as="geometry">
            <Array as="points">
              <mxPoint x="856" y="649" />
            </Array>
          </mxGeometry>
        </mxCell>
        <mxCell id="S4DxvhHedHkcSoAMQ83i-70" style="edgeStyle=orthogonalEdgeStyle;rounded=0;orthogonalLoop=1;jettySize=auto;html=1;exitX=0.75;exitY=1;exitDx=0;exitDy=0;" edge="1" parent="1" source="S4DxvhHedHkcSoAMQ83i-60" target="S4DxvhHedHkcSoAMQ83i-112">
          <mxGeometry relative="1" as="geometry">
            <Array as="points" />
          </mxGeometry>
        </mxCell>
        <mxCell id="S4DxvhHedHkcSoAMQ83i-117" style="edgeStyle=orthogonalEdgeStyle;rounded=0;orthogonalLoop=1;jettySize=auto;html=1;entryX=0.25;entryY=1;entryDx=0;entryDy=0;" edge="1" parent="1" source="S4DxvhHedHkcSoAMQ83i-10" target="S4DxvhHedHkcSoAMQ83i-60">
          <mxGeometry relative="1" as="geometry" />
        </mxCell>
      </root>
    </mxGraphModel>
  </diagram>
</mxfile>
